<?xml version="1.0" encoding="UTF-8" standalone="no"?>
<svg
   width="140mm"
   height="100mm"
   xml:space="preserve"
   overflow="hidden"
   version="1.1"
   id="svg68"
   sodipodi:docname="Picture 1.svg"
   inkscape:version="1.3 (0e150ed, 2023-07-21)"
   inkscape:export-filename="Picture 1.png"
   inkscape:export-xdpi="600"
   inkscape:export-ydpi="600"
   xmlns:inkscape="http://www.inkscape.org/namespaces/inkscape"
   xmlns:sodipodi="http://sodipodi.sourceforge.net/DTD/sodipodi-0.dtd"
   xmlns="http://www.w3.org/2000/svg"
   xmlns:svg="http://www.w3.org/2000/svg"><defs
     id="defs68" /><sodipodi:namedview
     id="namedview68"
     pagecolor="#ffffff"
     bordercolor="#666666"
     borderopacity="1.0"
     inkscape:showpageshadow="2"
     inkscape:pageopacity="0.0"
     inkscape:pagecheckerboard="0"
     inkscape:deskcolor="#d1d1d1"
     inkscape:zoom="1.030064"
     inkscape:cx="327.64954"
     inkscape:cy="235.42227"
     inkscape:window-width="1440"
     inkscape:window-height="872"
     inkscape:window-x="0"
     inkscape:window-y="0"
     inkscape:window-maximized="0"
     inkscape:current-layer="g67"
     inkscape:document-units="mm"
     inkscape:export-bgcolor="#ffffffff" /><g
     transform="matrix(0.23768053,0,0,0.23768053,-132.88854,1023.1051)"
     id="g68"><path
       d="M 936.97162,-4008.8322 H 2334.5453 c 0,0 94.0902,-3.4318 133.225,18.4394 31.3982,17.5474 56.461,49.4306 68.61,83.2856 17.1795,47.8732 18.8208,105.335 0,152.587 -11.7146,29.411 -36.9871,54.7986 -65.2984,68.9658 -40.9724,20.5031 -136.5366,15.8052 -136.5366,15.8052 H 1062.2299 c 0,0 -79.37708,-6.121 -111.41296,13.171 -27.67254,16.6643 -45.73786,48.815 -55.07032,79.7405 -13.91272,46.103 -13.92952,99.2273 2.6342,144.4455 10.59162,28.9149 31.43454,56.6872 58.37692,71.599 30.99904,17.1572 105.47216,13.171 105.47216,13.171 h 1282.8522 c 0,0 92.4965,-7.5805 131.2682,13.171 25.7993,13.8084 45.872,40.2719 55.74,67.82 17.4267,48.6493 15.2686,105.6599 0,155.029 -8.2291,26.6076 -23.3547,54.5247 -47.17,68.9648 -37.8746,22.9648 -131.9356,15.8052 -131.9356,15.8052 H 919.8207"
       stroke="#042433"
       stroke-width="6.875"
       stroke-linecap="butt"
       stroke-linejoin="miter"
       stroke-miterlimit="8"
       stroke-opacity="1"
       fill="none"
       fill-rule="evenodd"
       id="path1"
       sodipodi:nodetypes="ccaaaaccaaaaccaaaacc"
       style="display:inline" /><g
       id="g67"
       style="display:inline"
       transform="translate(398.56538,-4455.3322)"><path
         d="m 590.81622,450 c 0,-17.949 14.551,-32.5 32.5,-32.5 17.949,0 32.5,14.551 32.5,32.5 0,17.949 -14.551,32.5 -32.5,32.5 -17.949,0 -32.5,-14.551 -32.5,-32.5 z"
         stroke="#000000"
         stroke-width="4.58333"
         stroke-linecap="butt"
         stroke-linejoin="miter"
         stroke-miterlimit="8"
         stroke-opacity="1"
         fill="#ffffff"
         fill-rule="evenodd"
         fill-opacity="1"
         id="path2"
         style="stroke:#7f7f7f;stroke-opacity:1" /><path
         d="m 716.81622,450 c 0,-17.949 14.54996,-32.5 32.49988,-32.5 17.94992,0 32.49984,14.551 32.49984,32.5 0,17.949 -14.54992,32.5 -32.49984,32.5 -17.94992,0 -32.49988,-14.551 -32.49988,-32.5 z"
         stroke="#000000"
         stroke-width="4.58333"
         stroke-linecap="butt"
         stroke-linejoin="miter"
         stroke-miterlimit="8"
         stroke-opacity="1"
         fill="#ffffff"
         fill-rule="evenodd"
         fill-opacity="1"
         id="path3"
         style="stroke:#7f7f7f;stroke-opacity:1" /><path
         d="m 842.81566,450 c 0,-17.949 14.54992,-32.5 32.49984,-32.5 17.94992,0 32.49984,14.551 32.49984,32.5 0,17.949 -14.54992,32.5 -32.49984,32.5 -17.94992,0 -32.49984,-14.551 -32.49984,-32.5 z"
         stroke="#000000"
         stroke-width="4.58333"
         stroke-linecap="butt"
         stroke-linejoin="miter"
         stroke-miterlimit="8"
         stroke-opacity="1"
         fill="#ffffff"
         fill-rule="evenodd"
         fill-opacity="1"
         id="path4"
         style="stroke:#7f7f7f;stroke-opacity:1" /><path
         d="m 967.31506,449.5 c 0,-17.949 14.54996,-32.5 32.49988,-32.5 17.94996,0 32.49996,14.551 32.49996,32.5 0,17.949 -14.55,32.5 -32.49996,32.5 -17.94992,0 -32.49988,-14.551 -32.49988,-32.5 z"
         fill="#215f9a"
         fill-rule="evenodd"
         fill-opacity="1"
         id="path5" /><path
         d="m 1093.3149,449.5 c 0,-17.949 14.55,-32.5 32.5,-32.5 17.95,0 32.5,14.551 32.5,32.5 0,17.949 -14.55,32.5 -32.5,32.5 -17.95,0 -32.5,-14.551 -32.5,-32.5 z"
         fill="#215f9a"
         fill-rule="evenodd"
         fill-opacity="1"
         id="path6" /><path
         d="m 1220.3149,446.5 c 0,-17.949 14.55,-32.5 32.5,-32.5 17.95,0 32.5,14.551 32.5,32.5 0,17.949 -14.55,32.5 -32.5,32.5 -17.95,0 -32.5,-14.551 -32.5,-32.5 z"
         fill="#215f9a"
         fill-rule="evenodd"
         fill-opacity="1"
         id="path7" /><path
         d="m 1346.3149,446.5 c 0,-17.949 14.55,-32.5 32.5,-32.5 17.95,0 32.5,14.551 32.5,32.5 0,17.949 -14.55,32.5 -32.5,32.5 -17.95,0 -32.5,-14.551 -32.5,-32.5 z"
         fill="#e8e8e8"
         fill-rule="evenodd"
         fill-opacity="1"
         id="path8" /><path
         d="m 1471.3149,446.5 c 0,-17.949 14.55,-32.5 32.5,-32.5 17.95,0 32.5,14.551 32.5,32.5 0,17.949 -14.55,32.5 -32.5,32.5 -17.95,0 -32.5,-14.551 -32.5,-32.5 z"
         fill="#e8e8e8"
         fill-rule="evenodd"
         fill-opacity="1"
         id="path9" /><path
         d="m 1597.3149,446.5 c 0,-17.949 14.55,-32.5 32.5,-32.5 17.95,0 32.5,14.551 32.5,32.5 0,17.949 -14.55,32.5 -32.5,32.5 -17.95,0 -32.5,-14.551 -32.5,-32.5 z"
         fill="#e8e8e8"
         fill-rule="evenodd"
         fill-opacity="1"
         id="path10" /><path
         d="m 1723.3149,446.5 c 0,-17.949 14.55,-32.5 32.5,-32.5 17.95,0 32.5,14.551 32.5,32.5 0,17.949 -14.55,32.5 -32.5,32.5 -17.95,0 -32.5,-14.551 -32.5,-32.5 z"
         fill="#e8e8e8"
         fill-rule="evenodd"
         fill-opacity="1"
         id="path11" /><path
         d="m 1849.3149,446.5 c 0,-17.949 14.55,-32.5 32.5,-32.5 17.95,0 32.5,14.551 32.5,32.5 0,17.949 -14.55,32.5 -32.5,32.5 -17.95,0 -32.5,-14.551 -32.5,-32.5 z"
         fill="#d1d1d1"
         fill-rule="evenodd"
         fill-opacity="1"
         id="path12" /><path
         d="m 1975.3149,446.5 c 0,-17.949 14.55,-32.5 32.5,-32.5 17.95,0 32.5,14.551 32.5,32.5 0,17.949 -14.55,32.5 -32.5,32.5 -17.95,0 -32.5,-14.551 -32.5,-32.5 z"
         fill="#d1d1d1"
         fill-rule="evenodd"
         fill-opacity="1"
         id="path13" /><path
         d="m 590.31622,787.5 c 0,-17.949 14.551,-32.5 32.5,-32.5 17.949,0 32.5,14.551 32.5,32.5 0,17.949 -14.551,32.5 -32.5,32.5 -17.949,0 -32.5,-14.551 -32.5,-32.5 z"
         fill="#e97132"
         fill-rule="evenodd"
         fill-opacity="1"
         id="path14" /><path
         d="m 716.31622,787.5 c 0,-17.949 14.54996,-32.5 32.49988,-32.5 17.94992,0 32.49984,14.551 32.49984,32.5 0,17.949 -14.54992,32.5 -32.49984,32.5 -17.94992,0 -32.49988,-14.551 -32.49988,-32.5 z"
         fill="#747474"
         fill-rule="evenodd"
         fill-opacity="1"
         id="path15" /><path
         d="m 842.31566,787.5 c 0,-17.949 14.54996,-32.5 32.49984,-32.5 17.94992,0 32.49988,14.551 32.49988,32.5 0,17.949 -14.54996,32.5 -32.49988,32.5 -17.94988,0 -32.49984,-14.551 -32.49984,-32.5 z"
         fill="#747474"
         fill-rule="evenodd"
         fill-opacity="1"
         id="path16" /><path
         d="m 967.31506,787.5 c 0,-17.949 14.54996,-32.5 32.49988,-32.5 17.94996,0 32.49996,14.551 32.49996,32.5 0,17.949 -14.55,32.5 -32.49996,32.5 -17.94992,0 -32.49988,-14.551 -32.49988,-32.5 z"
         fill="#747474"
         fill-rule="evenodd"
         fill-opacity="1"
         id="path17" /><path
         d="m 1093.3149,787.5 c 0,-17.949 14.55,-32.5 32.5,-32.5 17.95,0 32.5,14.551 32.5,32.5 0,17.949 -14.55,32.5 -32.5,32.5 -17.95,0 -32.5,-14.551 -32.5,-32.5 z"
         fill="#aeaeae"
         fill-rule="evenodd"
         fill-opacity="1"
         id="path18" /><path
         d="m 1220.3149,784.5 c 0,-17.949 14.55,-32.5 32.5,-32.5 17.95,0 32.5,14.551 32.5,32.5 0,17.949 -14.55,32.5 -32.5,32.5 -17.95,0 -32.5,-14.551 -32.5,-32.5 z"
         fill="#aeaeae"
         fill-rule="evenodd"
         fill-opacity="1"
         id="path19" /><path
         d="m 1346.3149,784.5 c 0,-17.949 14.55,-32.5 32.5,-32.5 17.95,0 32.5,14.551 32.5,32.5 0,17.949 -14.55,32.5 -32.5,32.5 -17.95,0 -32.5,-14.551 -32.5,-32.5 z"
         fill="#aeaeae"
         fill-rule="evenodd"
         fill-opacity="1"
         id="path20" /><path
         d="m 1471.3149,784.5 c 0,-17.949 14.55,-32.5 32.5,-32.5 17.95,0 32.5,14.551 32.5,32.5 0,17.949 -14.55,32.5 -32.5,32.5 -17.95,0 -32.5,-14.551 -32.5,-32.5 z"
         fill="#aeaeae"
         fill-rule="evenodd"
         fill-opacity="1"
         id="path21" /><path
         d="m 1597.3149,784.5 c 0,-17.949 14.55,-32.5 32.5,-32.5 17.95,0 32.5,14.551 32.5,32.5 0,17.949 -14.55,32.5 -32.5,32.5 -17.95,0 -32.5,-14.551 -32.5,-32.5 z"
         fill="#aeaeae"
         fill-rule="evenodd"
         fill-opacity="1"
         id="path22" /><path
         d="m 1723.3149,784.5 c 0,-17.949 14.55,-32.5 32.5,-32.5 17.95,0 32.5,14.551 32.5,32.5 0,17.949 -14.55,32.5 -32.5,32.5 -17.95,0 -32.5,-14.551 -32.5,-32.5 z"
         fill="#aeaeae"
         fill-rule="evenodd"
         fill-opacity="1"
         id="path23" /><path
         d="m 1849.3149,784.5 c 0,-17.949 14.55,-32.5 32.5,-32.5 17.95,0 32.5,14.551 32.5,32.5 0,17.949 -14.55,32.5 -32.5,32.5 -17.95,0 -32.5,-14.551 -32.5,-32.5 z"
         fill="#d1d1d1"
         fill-rule="evenodd"
         fill-opacity="1"
         id="path24" /><path
         d="m 1975.3149,784.5 c 0,-17.949 14.55,-32.5 32.5,-32.5 17.95,0 32.5,14.551 32.5,32.5 0,17.949 -14.55,32.5 -32.5,32.5 -17.95,0 -32.5,-14.551 -32.5,-32.5 z"
         fill="#d1d1d1"
         fill-rule="evenodd"
         fill-opacity="1"
         id="path25" /><path
         d="m 590.31622,1112.5 c 0,-17.95 14.551,-32.5 32.5,-32.5 17.949,0 32.5,14.55 32.5,32.5 0,17.95 -14.551,32.5 -32.5,32.5 -17.949,0 -32.5,-14.55 -32.5,-32.5 z"
         fill="#215f9a"
         fill-rule="evenodd"
         fill-opacity="1"
         id="path26" /><path
         d="m 716.31622,1112.5 c 0,-17.95 14.54996,-32.5 32.49988,-32.5 17.94992,0 32.49984,14.55 32.49984,32.5 0,17.95 -14.54992,32.5 -32.49984,32.5 -17.94992,0 -32.49988,-14.55 -32.49988,-32.5 z"
         fill="#215f9a"
         fill-rule="evenodd"
         fill-opacity="1"
         id="path27" /><path
         d="m 842.31566,1112.5 c 0,-17.95 14.54996,-32.5 32.49984,-32.5 17.94992,0 32.49988,14.55 32.49988,32.5 0,17.95 -14.54996,32.5 -32.49988,32.5 -17.94988,0 -32.49984,-14.55 -32.49984,-32.5 z"
         fill="#215f9a"
         fill-rule="evenodd"
         fill-opacity="1"
         id="path28" /><path
         d="m 967.31506,1112.5 c 0,-17.95 14.54996,-32.5 32.49988,-32.5 17.94996,0 32.49996,14.55 32.49996,32.5 0,17.95 -14.55,32.5 -32.49996,32.5 -17.94992,0 -32.49988,-14.55 -32.49988,-32.5 z"
         fill="#e8e8e8"
         fill-rule="evenodd"
         fill-opacity="1"
         id="path29" /><path
         d="m 1093.3149,1112.5 c 0,-17.95 14.55,-32.5 32.5,-32.5 17.95,0 32.5,14.55 32.5,32.5 0,17.95 -14.55,32.5 -32.5,32.5 -17.95,0 -32.5,-14.55 -32.5,-32.5 z"
         fill="#e8e8e8"
         fill-rule="evenodd"
         fill-opacity="1"
         id="path30" /><path
         d="m 1220.3149,1108.5 c 0,-17.95 14.55,-32.5 32.5,-32.5 17.95,0 32.5,14.55 32.5,32.5 0,17.95 -14.55,32.5 -32.5,32.5 -17.95,0 -32.5,-14.55 -32.5,-32.5 z"
         fill="#e8e8e8"
         fill-rule="evenodd"
         fill-opacity="1"
         id="path31" /><path
         d="m 1346.3149,1108.5 c 0,-17.95 14.55,-32.5 32.5,-32.5 17.95,0 32.5,14.55 32.5,32.5 0,17.95 -14.55,32.5 -32.5,32.5 -17.95,0 -32.5,-14.55 -32.5,-32.5 z"
         fill="#e8e8e8"
         fill-rule="evenodd"
         fill-opacity="1"
         id="path32" /><path
         d="m 1471.3149,1108.5 c 0,-17.95 14.55,-32.5 32.5,-32.5 17.95,0 32.5,14.55 32.5,32.5 0,17.95 -14.55,32.5 -32.5,32.5 -17.95,0 -32.5,-14.55 -32.5,-32.5 z"
         fill="#e8e8e8"
         fill-rule="evenodd"
         fill-opacity="1"
         id="path33" /><path
         d="m 1597.3149,1108.5 c 0,-17.95 14.55,-32.5 32.5,-32.5 17.95,0 32.5,14.55 32.5,32.5 0,17.95 -14.55,32.5 -32.5,32.5 -17.95,0 -32.5,-14.55 -32.5,-32.5 z"
         fill="#e8e8e8"
         fill-rule="evenodd"
         fill-opacity="1"
         id="path34" /><path
         d="m 1723.3149,1108.5 c 0,-17.95 14.55,-32.5 32.5,-32.5 17.95,0 32.5,14.55 32.5,32.5 0,17.95 -14.55,32.5 -32.5,32.5 -17.95,0 -32.5,-14.55 -32.5,-32.5 z"
         fill="#e8e8e8"
         fill-rule="evenodd"
         fill-opacity="1"
         id="path35" /><path
         d="m 1849.3149,1108.5 c 0,-17.95 14.55,-32.5 32.5,-32.5 17.95,0 32.5,14.55 32.5,32.5 0,17.95 -14.55,32.5 -32.5,32.5 -17.95,0 -32.5,-14.55 -32.5,-32.5 z"
         fill="#e8e8e8"
         fill-rule="evenodd"
         fill-opacity="1"
         id="path36" /><path
         d="m 1975.3149,1108.5 c 0,-17.95 14.55,-32.5 32.5,-32.5 17.95,0 32.5,14.55 32.5,32.5 0,17.95 -14.55,32.5 -32.5,32.5 -17.95,0 -32.5,-14.55 -32.5,-32.5 z"
         fill="#aeaeae"
         fill-rule="evenodd"
         fill-opacity="1"
         id="path37" /><path
         d="m 590.81622,1428.1138 c 0,-17.95 14.551,-32.5 32.5,-32.5 17.949,0 32.5,14.55 32.5,32.5 0,17.95 -14.551,32.5 -32.5,32.5 -17.949,0 -32.5,-14.55 -32.5,-32.5 z"
         stroke="#000000"
         stroke-width="4.58333"
         stroke-linecap="square"
         stroke-linejoin="miter"
         stroke-miterlimit="8"
         stroke-dasharray="13.75, 4.58333"
         stroke-opacity="1"
         fill="#ffffff"
         fill-rule="evenodd"
         fill-opacity="1"
         id="path38"
         style="fill:#ffffff;fill-opacity:1;stroke-width:4.58318;stroke-dasharray:4.58318, 9.16637;stroke-dashoffset:0" /><path
         d="m 716.81622,1428.1138 c 0,-17.95 14.54996,-32.5 32.49988,-32.5 17.94992,0 32.49984,14.55 32.49984,32.5 0,17.95 -14.54992,32.5 -32.49984,32.5 -17.94992,0 -32.49988,-14.55 -32.49988,-32.5 z"
         stroke="#000000"
         stroke-width="4.58333"
         stroke-linecap="square"
         stroke-linejoin="miter"
         stroke-miterlimit="8"
         stroke-dasharray="13.75, 4.58333"
         stroke-opacity="1"
         fill="#ffffff"
         fill-rule="evenodd"
         fill-opacity="1"
         id="path39"
         style="fill:#ffffff;fill-opacity:1;stroke-width:4.58318;stroke-dasharray:4.58318, 9.16637;stroke-dashoffset:0" /><path
         d="m 842.81566,1428.1138 c 0,-17.95 14.54992,-32.5 32.49984,-32.5 17.94992,0 32.49984,14.55 32.49984,32.5 0,17.95 -14.54992,32.5 -32.49984,32.5 -17.94992,0 -32.49984,-14.55 -32.49984,-32.5 z"
         stroke="#000000"
         stroke-width="4.58333"
         stroke-linecap="square"
         stroke-linejoin="miter"
         stroke-miterlimit="8"
         stroke-dasharray="13.75, 4.58333"
         stroke-opacity="1"
         fill="#ffffff"
         fill-rule="evenodd"
         fill-opacity="1"
         id="path40"
         style="fill:#ffffff;fill-opacity:1;stroke-width:4.58318;stroke-dasharray:4.58318, 9.16637;stroke-dashoffset:0" /><path
         d="m 967.31506,1428.0963 c 0,-17.95 14.54996,-32.5 32.49988,-32.5 17.94996,0 32.49996,14.55 32.49996,32.5 0,17.95 -14.55,32.5 -32.49996,32.5 -17.94992,0 -32.49988,-14.55 -32.49988,-32.5 z"
         fill="#747474"
         fill-rule="evenodd"
         fill-opacity="1"
         id="path41" /><path
         d="m 1093.3149,1428.0963 c 0,-17.95 14.55,-32.5 32.5,-32.5 17.95,0 32.5,14.55 32.5,32.5 0,17.95 -14.55,32.5 -32.5,32.5 -17.95,0 -32.5,-14.55 -32.5,-32.5 z"
         fill="#747474"
         fill-rule="evenodd"
         fill-opacity="1"
         id="path42" /><path
         d="m 1220.3149,1428.0963 c 0,-17.95 14.55,-32.5 32.5,-32.5 17.95,0 32.5,14.55 32.5,32.5 0,17.95 -14.55,32.5 -32.5,32.5 -17.95,0 -32.5,-14.55 -32.5,-32.5 z"
         fill="#747474"
         fill-rule="evenodd"
         fill-opacity="1"
         id="path43" /><path
         d="m 1346.3149,1428.0963 c 0,-17.95 14.55,-32.5 32.5,-32.5 17.95,0 32.5,14.55 32.5,32.5 0,17.95 -14.55,32.5 -32.5,32.5 -17.95,0 -32.5,-14.55 -32.5,-32.5 z"
         fill="#aeaeae"
         fill-rule="evenodd"
         fill-opacity="1"
         id="path44" /><path
         d="m 1471.3149,1428.0963 c 0,-17.95 14.55,-32.5 32.5,-32.5 17.95,0 32.5,14.55 32.5,32.5 0,17.95 -14.55,32.5 -32.5,32.5 -17.95,0 -32.5,-14.55 -32.5,-32.5 z"
         fill="#aeaeae"
         fill-rule="evenodd"
         fill-opacity="1"
         id="path45" /><path
         d="m 1597.3149,1428.0963 c 0,-17.95 14.55,-32.5 32.5,-32.5 17.95,0 32.5,14.55 32.5,32.5 0,17.95 -14.55,32.5 -32.5,32.5 -17.95,0 -32.5,-14.55 -32.5,-32.5 z"
         fill="#aeaeae"
         fill-rule="evenodd"
         fill-opacity="1"
         id="path46" /><path
         d="m 1723.3149,1428.0963 c 0,-17.95 14.55,-32.5 32.5,-32.5 17.95,0 32.5,14.55 32.5,32.5 0,17.95 -14.55,32.5 -32.5,32.5 -17.95,0 -32.5,-14.55 -32.5,-32.5 z"
         fill="#aeaeae"
         fill-rule="evenodd"
         fill-opacity="1"
         id="path47" /><path
         d="m 1849.3149,1428.0963 c 0,-17.95 14.55,-32.5 32.5,-32.5 17.95,0 32.5,14.55 32.5,32.5 0,17.95 -14.55,32.5 -32.5,32.5 -17.95,0 -32.5,-14.55 -32.5,-32.5 z"
         fill="#aeaeae"
         fill-rule="evenodd"
         fill-opacity="1"
         id="path48" /><path
         d="m 1975.3149,1428.0963 c 0,-17.95 14.55,-32.5 32.5,-32.5 17.95,0 32.5,14.55 32.5,32.5 0,17.95 -14.55,32.5 -32.5,32.5 -17.95,0 -32.5,-14.55 -32.5,-32.5 z"
         fill="#aeaeae"
         fill-rule="evenodd"
         fill-opacity="1"
         id="path49" /><text
         fill="#000000"
         fill-opacity="1"
         font-family="Aptos, Aptos_MSFontService, sans-serif"
         font-style="normal"
         font-variant="normal"
         font-weight="400"
         font-stretch="normal"
         font-size="55px"
         text-anchor="start"
         direction="ltr"
         writing-mode="lr-tb"
         unicode-bidi="normal"
         text-decoration="none"
         id="text49"
         style="font-size:50.4879px;text-decoration:none;text-decoration-line:none;fill:#204a87"
         x="1127.5361"
         y="321.34195"><tspan
           sodipodi:role="line"
           id="tspan69"
           x="1127.5361"
           y="321.34195"
           style="text-align:center;text-anchor:middle;fill:#204a87">Replicate published </tspan><tspan
           sodipodi:role="line"
           x="1127.5361"
           y="384.45181"
           id="tspan80"
           style="text-align:center;text-anchor:middle;fill:#204a87">ML study</tspan></text><text
         fill="#000000"
         fill-opacity="1"
         font-family="Aptos, Aptos_MSFontService, sans-serif"
         font-style="normal"
         font-variant="normal"
         font-weight="400"
         font-stretch="normal"
         font-size="55px"
         text-anchor="start"
         direction="ltr"
         writing-mode="lr-tb"
         unicode-bidi="normal"
         text-decoration="none"
         id="text51"
         style="font-size:50.4879px;text-align:center;text-decoration:none;text-decoration-line:none;text-anchor:middle"
         x="1594.0172"
         y="323.1842"><tspan
           sodipodi:role="line"
           id="tspan82"
           x="1594.0172"
           y="323.1842">Explore</tspan><tspan
           sodipodi:role="line"
           id="tspan83"
           x="1594.0172"
           y="386.29407">possible methods</tspan></text><text
         fill="#000000"
         fill-opacity="1"
         font-family="Aptos, Aptos_MSFontService, sans-serif"
         font-style="normal"
         font-variant="normal"
         font-weight="400"
         font-stretch="normal"
         font-size="55px"
         text-anchor="start"
         direction="ltr"
         writing-mode="lr-tb"
         unicode-bidi="normal"
         text-decoration="none"
         id="text52"
         style="font-size:50.4879px;text-align:center;text-decoration:none;text-decoration-line:none;text-anchor:middle"
         x="1945.6152"
         y="599.92633"><tspan
           sodipodi:role="line"
           id="tspan72"
           x="1945.6152"
           y="599.92633">Shift to</tspan><tspan
           sodipodi:role="line"
           id="tspan73"
           x="1945.6152"
           y="663.03619">simulations</tspan></text><text
         fill="#000000"
         fill-opacity="1"
         font-family="Aptos, Aptos_MSFontService, sans-serif"
         font-style="normal"
         font-variant="normal"
         font-weight="400"
         font-stretch="normal"
         font-size="55px"
         text-anchor="start"
         direction="ltr"
         writing-mode="lr-tb"
         unicode-bidi="normal"
         text-decoration="none"
         id="text54"
         style="text-decoration:none;text-decoration-line:none"
         x="299.02258"
         y="468.41464">2022</text><text
         fill="#000000"
         fill-opacity="1"
         font-family="Aptos, Aptos_MSFontService, sans-serif"
         font-style="normal"
         font-variant="normal"
         font-weight="400"
         font-stretch="normal"
         font-size="55px"
         text-anchor="start"
         direction="ltr"
         writing-mode="lr-tb"
         unicode-bidi="normal"
         text-decoration="none"
         id="text55"
         style="text-decoration:none;text-decoration-line:none"
         x="299.02258"
         y="813.41467">2023</text><text
         fill="#000000"
         fill-opacity="1"
         font-family="Aptos, Aptos_MSFontService, sans-serif"
         font-style="normal"
         font-variant="normal"
         font-weight="400"
         font-stretch="normal"
         font-size="55px"
         text-anchor="start"
         direction="ltr"
         writing-mode="lr-tb"
         unicode-bidi="normal"
         text-decoration="none"
         id="text56"
         style="text-decoration:none;text-decoration-line:none"
         x="299.02258"
         y="1130">2024</text><text
         fill="#000000"
         fill-opacity="1"
         font-family="Aptos, Aptos_MSFontService, sans-serif"
         font-style="normal"
         font-variant="normal"
         font-weight="400"
         font-stretch="normal"
         font-size="55px"
         text-anchor="start"
         direction="ltr"
         writing-mode="lr-tb"
         unicode-bidi="normal"
         text-decoration="none"
         id="text57"
         style="text-decoration:none;text-decoration-line:none"
         x="299.02258"
         y="1442.9027">2025</text><text
         fill="#000000"
         fill-opacity="1"
         font-family="Aptos, Aptos_MSFontService, sans-serif"
         font-style="normal"
         font-variant="normal"
         font-weight="400"
         font-stretch="normal"
         font-size="55px"
         text-anchor="start"
         direction="ltr"
         writing-mode="lr-tb"
         unicode-bidi="normal"
         text-decoration="none"
         id="text58"
         style="font-size:50.4879px;text-decoration:none;text-decoration-line:none"
         x="1148.8911"
         y="712.341">Draft simulation paper</text><text
         fill="#000000"
         fill-opacity="1"
         font-family="Aptos, Aptos_MSFontService, sans-serif"
         font-style="normal"
         font-variant="normal"
         font-weight="400"
         font-stretch="normal"
         font-size="55px"
         text-anchor="start"
         direction="ltr"
         writing-mode="lr-tb"
         unicode-bidi="normal"
         text-decoration="none"
         id="text59"
         style="font-size:50.4879px;text-align:center;text-decoration:none;text-decoration-line:none;text-anchor:middle"
         x="880.02069"
         y="658.9447"><tspan
           sodipodi:role="line"
           id="tspan75"
           x="880.02069"
           y="658.9447">Revise</tspan><tspan
           sodipodi:role="line"
           x="880.02069"
           y="722.05457"
           id="tspan81">manuscript</tspan></text><text
         fill="#000000"
         fill-opacity="1"
         font-family="Aptos, Aptos_MSFontService, sans-serif"
         font-style="normal"
         font-variant="normal"
         font-weight="400"
         font-stretch="normal"
         font-size="55px"
         text-anchor="start"
         direction="ltr"
         writing-mode="lr-tb"
         unicode-bidi="normal"
         text-decoration="none"
         id="text61"
         style="font-size:50.4879px;text-decoration:none;text-decoration-line:none"
         x="1174.9242"
         y="1214.8765">Convert to ML paper</text><text
         fill="#000000"
         fill-opacity="1"
         font-family="Aptos, Aptos_MSFontService, sans-serif"
         font-style="normal"
         font-variant="normal"
         font-weight="400"
         font-stretch="normal"
         font-size="55px"
         text-anchor="start"
         direction="ltr"
         writing-mode="lr-tb"
         unicode-bidi="normal"
         text-decoration="none"
         id="text62"
         style="font-size:50.4879px;text-decoration:none;text-decoration-line:none"
         x="1454.6658"
         y="1364.4147">Revise manuscript</text><text
         fill="#000000"
         fill-opacity="1"
         font-family="Aptos, Aptos_MSFontService, sans-serif"
         font-style="normal"
         font-variant="normal"
         font-weight="400"
         font-stretch="normal"
         font-size="55px"
         text-anchor="start"
         direction="ltr"
         writing-mode="lr-tb"
         unicode-bidi="normal"
         text-decoration="none"
         id="text63"
         style="font-size:50.4879px;text-align:center;text-decoration:none;text-decoration-line:none;text-anchor:middle;fill:#204a87"
         x="749.56287"
         y="1204.6738"><tspan
           sodipodi:role="line"
           id="tspan76"
           x="749.56287"
           y="1204.6738">Apply machine</tspan><tspan
           sodipodi:role="line"
           id="tspan77"
           x="749.56287"
           y="1267.7837">learning</tspan></text><text
         fill="#000000"
         fill-opacity="1"
         font-family="Aptos, Aptos_MSFontService, sans-serif"
         font-style="normal"
         font-variant="normal"
         font-weight="400"
         font-stretch="normal"
         font-size="55px"
         text-anchor="start"
         direction="ltr"
         writing-mode="lr-tb"
         unicode-bidi="normal"
         text-decoration="none"
         id="text65"
         style="font-size:50.4879px;text-decoration:none;text-decoration-line:none;text-anchor:middle;text-align:center"
         x="1110.1083"
         y="1536.0734"><tspan
           sodipodi:role="line"
           id="tspan70"
           x="973.91663"
           y="1536.0734">Manuscript</tspan><tspan
           sodipodi:role="line"
           id="tspan71"
           x="973.91663"
           y="1599.1832">submitted</tspan></text><text
         fill="#000000"
         fill-opacity="1"
         font-family="Aptos, Aptos_MSFontService, sans-serif"
         font-style="normal"
         font-variant="normal"
         font-weight="400"
         font-stretch="normal"
         font-size="55px"
         text-anchor="start"
         direction="ltr"
         writing-mode="lr-tb"
         unicode-bidi="normal"
         text-decoration="none"
         id="text67"
         style="font-size:50.4879px;text-decoration:none;text-decoration-line:none;fill:#ce5c00"
         x="626.4425"
         y="900.82117"><tspan
           sodipodi:role="line"
           id="tspan78"
           x="626.4425"
           y="900.82117">Realized how to </tspan><tspan
           sodipodi:role="line"
           id="tspan79"
           x="626.4425"
           y="963.93103">bring ML back</tspan></text></g></g></svg>
